<svg xmlns="http://www.w3.org/2000/svg" version="1.1" xmlns:xlink="http://www.w3.org/1999/xlink" xmlns:svgjs="http://svgjs.dev/svgjs" width="1500" height="1500" viewBox="0 0 1500 1500"><rect width="1500" height="1500" fill="#000000"></rect><g transform="matrix(0.6666666666666666,0,0,0.6666666666666666,249.39393939393938,489.4692582234962)"><svg viewBox="0 0 396 206" data-background-color="#dedede" preserveAspectRatio="xMidYMid meet" height="780" width="1500" xmlns="http://www.w3.org/2000/svg" xmlns:xlink="http://www.w3.org/1999/xlink"><g id="tight-bounds" transform="matrix(1,0,0,1,0.2400000000000091,0.21074529481094828)"><svg viewBox="0 0 395.52 205.57899930911253" height="205.57899930911253" width="395.52"><g><svg viewBox="0 0 395.52 205.57899930911253" height="205.57899930911253" width="395.52"><g transform="matrix(1,0,0,1,0,127.05606899344846)"><svg viewBox="0 0 395.52 78.52293031566407" height="78.52293031566407" width="395.52"><g id="textblocktransform"><svg viewBox="0 0 395.52 78.52293031566407" height="78.52293031566407" width="395.52" id="textblock"><g><svg viewBox="0 0 395.52 78.52293031566407" height="78.52293031566407" width="395.52"><g transform="matrix(1,0,0,1,0,0)"><svg width="395.52" viewBox="3.05 -37.5 258.98 50" height="78.52293031566407" data-palette-color="#374151"><g class="wordmark-text-0" data-fill-palette-color="primary" id="text-0"><path d="M3.4-12.05L3.05-12.05 3.05-12.9Q8.85-12.9 8.85-18.9L8.85-18.9 8.85-30.65Q8.85-32.85 9.7-34.35L9.7-34.35Q11.45-37.45 16.65-37.45L16.65-37.45Q17.15-37.45 17.65-37.4L17.65-37.4 17.65-36.55Q17.5-36.55 17.35-36.55L17.35-36.55Q15.15-36.55 13.5-35.02 11.85-33.5 11.85-29.55L11.85-29.55 11.85-19.05Q11.85-13.75 7.05-12.45L7.05-12.45Q11.85-11.25 11.85-5.9L11.85-5.9 11.85 4.6Q11.85 8.95 13.8 10.4L13.8 10.4Q15.4 11.6 17.3 11.6L17.3 11.6Q17.5 11.6 17.65 11.6L17.65 11.6 17.65 12.45Q17.15 12.5 16.4 12.5 15.65 12.5 14.53 12.33 13.4 12.15 11.98 11.53 10.55 10.9 9.7 9.4 8.85 7.9 8.85 5.7L8.85 5.7 8.85-4.8Q8.85-11.85 3.4-12.05L3.4-12.05Z" fill="#ffffff" data-fill-palette-color="primary"></path><path d="M55.4-34.95L65.15-35Q65.15-34.95 65.2-34.25L65.2-34.25 62.05-33.95 51.05 0 47.75 0 36.35-33.7Q36.2-33.9 35.95-33.95L35.95-33.95 33.35-34.2Q33.3-34.5 33.3-34.95L33.3-34.95 43.3-35Q43.3-34.95 43.35-34.25L43.35-34.25 39.65-33.9 50.7-0.95 60.4-32.7 60.45-33.15Q60.45-33.75 60-33.8L60-33.8 55.45-34.2Q55.4-34.5 55.4-34.95L55.4-34.95ZM79.92 0.2Q74.7 0.2 71.47-2.8 68.24-5.8 68.24-11.98 68.24-18.15 71.67-21.68 75.1-25.2 80.29-25.2 85.49-25.2 88.74-22.2 91.99-19.2 91.99-13.03 91.99-6.85 88.57-3.33 85.15 0.2 79.92 0.2ZM80.24-24.3Q76.49-24.3 73.99-21.05 71.49-17.8 71.49-12.23 71.49-6.65 73.87-3.68 76.24-0.7 79.99-0.7 83.74-0.7 86.24-3.95 88.74-7.2 88.74-12.75 88.74-18.3 86.37-21.3 83.99-24.3 80.24-24.3ZM103.29-22.95L103.29-22.95 103.29-18.95Q107.24-24.75 111.04-24.85L111.04-24.85Q111.34-24.85 111.64-24.85L111.64-24.85 114.44-24.5 113.14-21.5Q112.19-22.45 110.69-22.45L110.69-22.45Q107.04-22.4 103.29-17.6L103.29-17.6 103.29-1 107.54-0.75Q107.54-0.7 107.49 0L107.49 0 96.99 0.05Q96.99-0.4 97.04-0.65L97.04-0.65 99.64-1Q100.04-1.05 100.04-1.7L100.04-1.7 100.04-23.4Q99.94-23.75 99.74-23.75L99.74-23.75 96.74-23.85 96.79-24.55Q99.49-25 100.89-25 102.29-25 102.79-24.35 103.29-23.7 103.29-22.95ZM130.37 0.2Q125.14 0.2 121.92-2.8 118.69-5.8 118.69-11.98 118.69-18.15 122.12-21.68 125.54-25.2 130.74-25.2 135.94-25.2 139.19-22.2 142.44-19.2 142.44-13.03 142.44-6.85 139.02-3.33 135.59 0.2 130.37 0.2ZM130.69-24.3Q126.94-24.3 124.44-21.05 121.94-17.8 121.94-12.23 121.94-6.65 124.32-3.68 126.69-0.7 130.44-0.7 134.19-0.7 136.69-3.95 139.19-7.2 139.19-12.75 139.19-18.3 136.82-21.3 134.44-24.3 130.69-24.3ZM153.79-35.45L153.79-35.45 153.79-23Q156.79-25.45 160.49-25.45L160.49-25.45Q163.89-25.45 166.89-23.35L166.89-23.35Q168.49-22.2 169.46-19.75 170.44-17.3 170.44-13.8L170.44-13.8Q170.44-7.15 167.14-3.8L167.14-3.8Q163.39 0 157.64 0L157.64 0Q155.49 0 153.36-0.35 151.24-0.7 150.54-1.15L150.54-1.15 150.54-35.85Q150.44-36.25 150.24-36.25L150.24-36.25 147.19-36.35 147.24-37.05Q150.39-37.5 151.56-37.5 152.74-37.5 153.26-36.85 153.79-36.2 153.79-35.45ZM153.79-22.05L153.79-22.05 153.79-0.9Q155.14-0.45 156.94-0.45L156.94-0.45Q161.84-0.45 164.51-3.9 167.19-7.35 167.19-13.55L167.19-13.55Q167.19-20.35 164.49-22.7L164.49-22.7Q162.39-24.55 159.64-24.55 156.89-24.55 153.79-22.05ZM178.19-11.5L178.19-11.5Q178.19-0.7 186.59-0.7L186.59-0.7Q188.79-0.7 191.29-1.18 193.79-1.65 194.49-2.05L194.49-2.05 194.84-1.55Q193.69-0.8 191.06-0.3 188.44 0.2 186.26 0.2 184.09 0.2 182.36-0.25 180.64-0.7 178.84-1.85 177.04-3 175.99-5.45 174.94-7.9 174.94-11.45L174.94-11.45Q174.94-18.05 178.34-21.55L178.34-21.55Q181.89-25.2 186.59-25.2 191.29-25.2 193.76-22.6 196.24-20 196.24-15.3L196.24-15.3Q196.24-14.3 196.09-13.15L196.09-13.15 178.24-13.15Q178.19-12.6 178.19-11.5ZM193.29-15.65L193.29-15.65Q193.29-19.4 191.64-21.78 189.99-24.15 187.14-24.15L187.14-24.15Q183.44-24.15 180.89-20.9L180.89-20.9Q178.84-18.35 178.34-14.1L178.34-14.1 193.24-14.1Q193.29-14.65 193.29-15.65ZM217.03 12.45L206.48 12.5 206.38 11.8 211.03 11.2Q211.38 11.15 211.48 10.5L211.48 10.5 213.13 0 211.48 0 203.13-23.25 203.08-23.3Q202.83-23.9 202.28-24L202.28-24 200.03-24.2Q199.98-24.5 199.98-24.95L199.98-24.95 210.48-25Q210.48-24.95 210.53-24.25L210.53-24.25 206.63-23.95 214.03-1.3 223.33-23.3Q223.48-23.6 223.16-23.8 222.83-24 222.48-24.05L222.48-24.05 220.28-24.2Q220.23-24.5 220.23-24.95L220.23-24.95 229.38-25Q229.38-24.95 229.43-24.25L229.43-24.25 224.98-23.8 214.48 0 212.58 11.45 216.93 11.7Q217.03 12.4 217.03 12.45L217.03 12.45Z" fill="#ffffff" data-fill-palette-color="primary"></path><path d="M262.03-12.9L262.03-12.05 261.68-12.05Q256.23-11.85 256.23-4.8L256.23-4.8 256.23 5.7Q256.23 7.9 255.38 9.4L255.38 9.4Q253.63 12.5 248.43 12.5L248.43 12.5Q247.93 12.5 247.43 12.45L247.43 12.45 247.43 11.6Q247.58 11.6 248.13 11.6 248.68 11.6 249.53 11.35 250.38 11.1 251.28 10.4L251.28 10.4Q253.23 8.95 253.23 4.6L253.23 4.6 253.23-5.9Q253.23-11.25 258.03-12.45L258.03-12.45Q253.23-13.75 253.23-19.05L253.23-19.05 253.23-29.55Q253.23-33.5 251.58-35.02 249.93-36.55 247.73-36.55L247.73-36.55Q247.58-36.55 247.43-36.55L247.43-36.55 247.43-37.4Q247.93-37.45 248.65-37.45 249.38-37.45 250.5-37.27 251.63-37.1 253.08-36.48 254.53-35.85 255.38-34.35 256.23-32.85 256.23-30.65L256.23-30.65 256.23-18.9Q256.23-12.9 262.03-12.9L262.03-12.9Z" fill="#ffffff" data-fill-palette-color="primary"></path></g></svg></g></svg></g></svg></g></svg></g><g transform="matrix(1,0,0,1,123.04353498357432,0)"><svg viewBox="0 0 149.43293003285135 108.51868969624775" height="108.51868969624775" width="149.43293003285135"><g><svg xmlns="http://www.w3.org/2000/svg" xmlns:xlink="http://www.w3.org/1999/xlink" version="1.1" x="0" y="0" viewBox="9.125015993277557 24.398650212632152 75.18741430912343 54.60134978736785" enable-background="new 0 0 100 100" xml:space="preserve" height="108.51868969624775" width="149.43293003285135" class="icon-icon-0" data-fill-palette-color="accent" id="icon-0"><g fill="#374151" data-fill-palette-color="accent"><path fill="#ffffff" d="M10.124 63.875c0.065 0 0.132-0.006 0.199-0.02 0.654-0.132 16.019-3.269 21.836-7.15 1.355 0.517 2.721 1.01 4.094 1.46-5.107 3.221-14.203 3.707-14.302 3.711-0.551 0.027-0.977 0.496-0.95 1.048 0.026 0.535 0.468 0.951 0.998 0.951 0.017 0 0.033 0 0.049-0.001 0.331-0.016 5.915-0.313 11.01-2.054 0.07 0.101 0.157 0.192 0.266 0.264 0.471 0.311 10.94 7.125 22.814 7.653 0.009 0.017 0.01 0.035 0.02 0.052l4.222 6.604c-2.563 0.166-3.708 0.658-3.79 0.695-0.5 0.225-0.721 0.808-0.501 1.31 0.219 0.503 0.808 0.732 1.311 0.518 0.032-0.014 3.296-1.342 11.684 0.07C69.14 78.996 69.196 79 69.251 79c0.479 0 0.903-0.346 0.985-0.834 0.091-0.545-0.276-1.061-0.82-1.152-2.705-0.455-4.911-0.635-6.695-0.667-0.002-0.003-0.002-0.007-0.004-0.011l-4.208-6.581c0.093-0.003 0.186-0.002 0.28-0.006C72.051 69.229 76.395 57.962 76.429 57.872c3.603-9.009 2.559-16.264 1.883-19.136l1.605-0.017c0.552-0.006 0.995-0.459 0.989-1.011s-0.492-0.996-1.01-0.989L76.989 36.75c-0.323 0.003-0.624 0.163-0.808 0.427-0.185 0.265-0.231 0.602-0.124 0.906 0.029 0.081 2.825 8.27-1.494 19.066-0.156 0.414-3.951 10.135-15.852 10.602-10.364 0.4-20.473-5.062-23.425-6.808 1.245-0.567 2.398-1.244 3.364-2.048 2.094 0.595 4.196 1.071 6.285 1.342 0.729 0.095 1.486 0.141 2.261 0.141 4.895 0 10.496-1.838 14.309-4.811 3.08-2.401 4.911-5.405 5.298-8.688 0.516-4.386-1.605-8.004-5.672-9.679-0.509-0.21-1.095 0.033-1.306 0.544-0.21 0.511 0.033 1.095 0.544 1.306 3.237 1.333 4.858 4.102 4.447 7.595-0.323 2.74-1.893 5.279-4.541 7.345-4.03 3.141-10.236 4.894-15.082 4.264s-9.841-2.395-14.645-4.324c4.352-1.467 9.002-3.245 12.519-6.398 1.238-1.11 2.426-2.397 3.576-3.642 3.015-3.266 6.133-6.643 10.491-7.232 0.325-0.044 0.608-0.245 0.757-0.537 0.015-0.03 0.465-0.896 1.281-2.099 1.221 0.237 3.979 0.714 6.346 0.714 0.761 0 1.48-0.049 2.094-0.172 0.542-0.108 0.893-0.635 0.785-1.176-0.108-0.542-0.639-0.892-1.176-0.785-1.799 0.358-4.876-0.058-6.723-0.374 2.391-2.966 6.275-6.434 11.025-5.739 4.945 0.719 6.463 3.464 6.931 5.098-2.12 0.235-3.214 2.363-3.265 2.465-0.247 0.494-0.046 1.095 0.447 1.342C75.78 35.466 75.933 35.5 76.083 35.5c0.367 0 0.72-0.203 0.895-0.553 0.008-0.015 0.782-1.485 2.019-1.37l3.619 3.515c0.396 0.385 1.029 0.375 1.414-0.02 0.385-0.396 0.375-1.029-0.021-1.414l-3.377-3.281c-0.187-1.586-1.367-6.782-8.821-7.867-8.486-1.227-14.214 8.021-15.456 10.246-4.789 0.854-8.037 4.372-11.182 7.777-1.169 1.266-2.273 2.462-3.441 3.509-3.692 3.31-8.725 4.973-13.592 6.582l-0.788 0.26c-0.396 0.132-0.669 0.496-0.685 0.913s0.231 0.8 0.618 0.96c0.829 0.343 1.668 0.685 2.511 1.024-6.27 3.337-19.724 6.084-19.869 6.114-0.541 0.109-0.891 0.637-0.782 1.178C9.241 63.548 9.658 63.875 10.124 63.875z" data-fill-palette-color="accent"></path><circle fill="#ffffff" cx="72" cy="32.75" r="1.5" data-fill-palette-color="accent"></circle><path fill="#ffffff" d="M52.001 45.334c0.15 0 0.303-0.034 0.446-0.106 1.046-0.523 4.918-3.662 5.685-4.286 0.428-0.349 0.492-0.979 0.143-1.407-0.349-0.428-0.979-0.491-1.407-0.144-1.707 1.391-4.659 3.72-5.315 4.048-0.494 0.247-0.694 0.848-0.448 1.342C51.281 45.131 51.634 45.334 52.001 45.334z" data-fill-palette-color="accent"></path><path fill="#ffffff" d="M60.996 42.132c-0.479-0.274-1.09-0.107-1.364 0.372-0.337 0.589-1.502 2.304-2.836 3.152-0.466 0.296-0.603 0.915-0.306 1.381C56.681 47.336 57.004 47.5 57.334 47.5c0.184 0 0.37-0.05 0.537-0.156 2.018-1.285 3.438-3.744 3.497-3.848C61.642 43.017 61.476 42.406 60.996 42.132z" data-fill-palette-color="accent"></path><path fill="#ffffff" d="M53.707 47.293c-0.391-0.391-1.023-0.391-1.414 0-0.423 0.423-2.574 1.424-4.324 2.109-0.515 0.201-0.768 0.781-0.567 1.296 0.154 0.395 0.532 0.636 0.932 0.636 0.121 0 0.244-0.022 0.364-0.069 0.945-0.37 4.099-1.647 5.009-2.558C54.098 48.316 54.098 47.684 53.707 47.293z" data-fill-palette-color="accent"></path><path fill="#ffffff" d="M54.779 54.056c0.129 0 0.261-0.025 0.388-0.079 0.165-0.069 4.048-1.718 5.87-3.272 0.42-0.359 0.47-0.99 0.111-1.41-0.358-0.419-0.99-0.47-1.41-0.111-1.585 1.354-5.311 2.935-5.348 2.95-0.508 0.215-0.747 0.802-0.533 1.311C54.019 53.827 54.389 54.056 54.779 54.056z" data-fill-palette-color="accent"></path><path fill="#ffffff" d="M42.886 52.105c-0.563 0.282-2.164 0.499-3.119 0.564-0.551 0.037-0.968 0.513-0.931 1.064 0.035 0.528 0.475 0.933 0.997 0.934 0.022 0 0.045 0 0.067-0.003 0.451-0.03 2.758-0.208 3.881-0.769 0.494-0.247 0.694-0.848 0.447-1.342C43.981 52.059 43.382 51.858 42.886 52.105z" data-fill-palette-color="accent"></path><path fill="#ffffff" d="M48.772 54.581c-0.871 0.372-1.779 0.264-1.803 0.262-0.541-0.075-1.048 0.304-1.125 0.849-0.078 0.546 0.302 1.053 0.848 1.131 0.057 0.008 0.289 0.038 0.631 0.038 0.55 0 1.384-0.077 2.238-0.442 0.507-0.217 0.743-0.805 0.524-1.313C49.869 54.599 49.28 54.364 48.772 54.581z" data-fill-palette-color="accent"></path><path fill="#ffffff" d="M67.168 36.842c-0.502-0.232-1.096-0.012-1.326 0.49-0.231 0.501-0.013 1.095 0.489 1.326 0.093 0.043 2.316 1.062 4.511 1.413 0.054 0.009 0.107 0.013 0.159 0.013 0.482 0 0.907-0.35 0.986-0.842 0.087-0.545-0.284-1.058-0.829-1.146C69.241 37.789 67.189 36.851 67.168 36.842z" data-fill-palette-color="accent"></path></g></svg></g></svg></g><g></g></svg></g><defs></defs></svg><rect width="395.52" height="205.57899930911253" fill="none" stroke="none" visibility="hidden"></rect></g></svg></g></svg>