<svg id="visual" viewBox="0 0 960 200" width="960" height="200" xmlns="http://www.w3.org/2000/svg" xmlns:xlink="http://www.w3.org/1999/xlink" version="1.1"><rect x="0" y="0" width="960" height="200" fill="#F1FAEE"></rect><path d="M0 32L20 35.7C40 39.3 80 46.7 120 51.7C160 56.7 200 59.3 240 56.7C280 54 320 46 360 51.8C400 57.7 440 77.3 480 85.7C520 94 560 91 600 80.2C640 69.3 680 50.7 720 43.7C760 36.7 800 41.3 840 42C880 42.7 920 39.3 940 37.7L960 36L960 0L940 0C920 0 880 0 840 0C800 0 760 0 720 0C680 0 640 0 600 0C560 0 520 0 480 0C440 0 400 0 360 0C320 0 280 0 240 0C200 0 160 0 120 0C80 0 40 0 20 0L0 0Z" fill="#E63946" stroke-linecap="round" stroke-linejoin="miter"></path></svg>