<svg id="visual" viewBox="0 0 960 200" width="960" height="200" xmlns="http://www.w3.org/2000/svg" xmlns:xlink="http://www.w3.org/1999/xlink" version="1.1"><rect x="0" y="0" width="960" height="200" fill="#A8DADC"></rect><path d="M0 155L26.7 148.2C53.3 141.3 106.7 127.7 160 116.7C213.3 105.7 266.7 97.3 320 105.8C373.3 114.3 426.7 139.7 480 147.5C533.3 155.3 586.7 145.7 640 138.3C693.3 131 746.7 126 800 126C853.3 126 906.7 131 933.3 133.5L960 136L960 201L933.3 201C906.7 201 853.3 201 800 201C746.7 201 693.3 201 640 201C586.7 201 533.3 201 480 201C426.7 201 373.3 201 320 201C266.7 201 213.3 201 160 201C106.7 201 53.3 201 26.7 201L0 201Z" fill="#E63946" stroke-linecap="round" stroke-linejoin="miter"></path></svg>