<svg xmlns="http://www.w3.org/2000/svg" version="1.1" xmlns:xlink="http://www.w3.org/1999/xlink" xmlns:svgjs="http://svgjs.dev/svgjs" width="1500" height="1500" viewBox="0 0 1500 1500"><rect width="1500" height="1500" fill="#ffffff"></rect><g transform="matrix(0.6666666666666666,0,0,0.6666666666666666,249.39393939393943,644.4209128993043)"><svg viewBox="0 0 396 84" data-background-color="#a8dadc" preserveAspectRatio="xMidYMid meet" height="318" width="1500" xmlns="http://www.w3.org/2000/svg" xmlns:xlink="http://www.w3.org/1999/xlink"><g id="tight-bounds" transform="matrix(1,0,0,1,0.2400000000000091,-0.16677680915833548)"><svg viewBox="0 0 395.52 84.33355361831667" height="84.33355361831667" width="395.52"><g><svg viewBox="0 0 658.3629936435007 140.37745455286623" height="84.33355361831667" width="395.52"><g transform="matrix(1,0,0,1,262.84299364350073,19.40093619363057)"><svg viewBox="0 0 395.5199999999999 101.57558216560508" height="101.57558216560508" width="395.5199999999999"><g id="textblocktransform"><svg viewBox="0 0 395.5199999999999 101.57558216560508" height="101.57558216560508" width="395.5199999999999" id="textblock"><g><svg viewBox="0 0 395.5199999999999 101.57558216560508" height="101.57558216560508" width="395.5199999999999"><g transform="matrix(1,0,0,1,0,0)"><svg width="395.5199999999999" viewBox="2 -40.85 196.23 50.400000000000006" height="101.57558216560508" data-palette-color="#1d3557"><path d="M13.85 5.6L13.85 9.55Q10.7 9.55 8.9 9.22 7.1 8.9 6.23 7.88 5.35 6.85 5.13 4.85 4.9 2.85 4.9-0.5L4.9-0.5 4.9-7.55Q4.9-10.3 4.67-11.63 4.45-12.95 3.83-13.38 3.2-13.8 2-13.8L2-13.8 2-17.5Q3.2-17.5 3.83-17.95 4.45-18.4 4.67-19.75 4.9-21.1 4.9-23.8L4.9-23.8 4.9-30.8Q4.9-34.15 5.13-36.15 5.35-38.15 6.23-39.18 7.1-40.2 8.9-40.53 10.7-40.85 13.85-40.85L13.85-40.85 13.85-36.9Q12.6-36.9 11.9-36.7 11.2-36.5 10.9-35.9 10.6-35.3 10.55-34.08 10.5-32.85 10.5-30.8L10.5-30.8 10.5-23Q10.5-19.25 9.6-17.65 8.7-16.05 7.2-15.65L7.2-15.65Q8.7-15.3 9.6-13.7 10.5-12.1 10.5-8.35L10.5-8.35 10.5-0.5Q10.5 1.6 10.55 2.83 10.6 4.05 10.9 4.65 11.2 5.25 11.9 5.43 12.6 5.6 13.85 5.6L13.85 5.6ZM41.59 0L36.65 0 27.59-40.5 32.9-40.5 39.3-10.65 45.39-40.5 50.55-40.5 41.59 0ZM61.84 0.4L61.84 0.4Q58.64 0.4 56.79-0.9 54.94-2.2 54.17-4.6 53.39-7 53.39-10.25L53.39-10.25 53.39-18.65Q53.39-21.9 54.17-24.3 54.94-26.7 56.79-28 58.64-29.3 61.84-29.3L61.84-29.3Q65.04-29.3 66.87-28 68.69-26.7 69.47-24.3 70.24-21.9 70.24-18.65L70.24-18.65 70.24-10.25Q70.24-7 69.47-4.6 68.69-2.2 66.87-0.9 65.04 0.4 61.84 0.4ZM61.84-3.55L61.84-3.55Q63.39-3.55 64.02-4.45 64.64-5.35 64.77-6.83 64.89-8.3 64.89-9.9L64.89-9.9 64.89-18.95Q64.89-20.6 64.77-22.05 64.64-23.5 64.02-24.43 63.39-25.35 61.84-25.35L61.84-25.35Q60.29-25.35 59.64-24.43 58.99-23.5 58.87-22.05 58.74-20.6 58.74-18.95L58.74-18.95 58.74-9.9Q58.74-8.3 58.87-6.83 58.99-5.35 59.64-4.45 60.29-3.55 61.84-3.55ZM80.64 0L75.29 0 75.29-28.9 80.64-28.9 80.64-24.8Q82.24-27.45 83.84-28.35 85.44-29.25 87.04-29.25L87.04-29.25Q87.24-29.25 87.41-29.25 87.59-29.25 87.89-29.2L87.89-29.2 87.89-23.3Q87.29-23.55 86.52-23.73 85.74-23.9 84.94-23.9L84.94-23.9Q83.69-23.9 82.66-23.33 81.64-22.75 80.64-21.1L80.64-21.1 80.64 0ZM99.14 0.4L99.14 0.4Q95.94 0.4 94.09-0.9 92.24-2.2 91.46-4.6 90.69-7 90.69-10.25L90.69-10.25 90.69-18.65Q90.69-21.9 91.46-24.3 92.24-26.7 94.09-28 95.94-29.3 99.14-29.3L99.14-29.3Q102.34-29.3 104.16-28 105.99-26.7 106.76-24.3 107.54-21.9 107.54-18.65L107.54-18.65 107.54-10.25Q107.54-7 106.76-4.6 105.99-2.2 104.16-0.9 102.34 0.4 99.14 0.4ZM99.14-3.55L99.14-3.55Q100.69-3.55 101.31-4.45 101.94-5.35 102.06-6.83 102.19-8.3 102.19-9.9L102.19-9.9 102.19-18.95Q102.19-20.6 102.06-22.05 101.94-23.5 101.31-24.43 100.69-25.35 99.14-25.35L99.14-25.35Q97.59-25.35 96.94-24.43 96.29-23.5 96.16-22.05 96.04-20.6 96.04-18.95L96.04-18.95 96.04-9.9Q96.04-8.3 96.16-6.83 96.29-5.35 96.94-4.45 97.59-3.55 99.14-3.55ZM122.78 0.4L122.78 0.4Q121.23 0.4 120.01-0.38 118.78-1.15 117.89-2.1L117.89-2.1 117.89 0 112.53 0 112.53-40.5 117.89-40.5 117.89-26.6Q118.83-27.7 120.16-28.5 121.48-29.3 123.34-29.3L123.34-29.3Q125.59-29.3 126.91-28.13 128.24-26.95 128.88-25.18 129.53-23.4 129.74-21.58 129.94-19.75 129.94-18.45L129.94-18.45 129.94-11.45Q129.94-8.4 129.34-5.68 128.74-2.95 127.19-1.28 125.64 0.4 122.78 0.4ZM121.69-3.8L121.69-3.8Q123.09-3.8 123.69-4.83 124.28-5.85 124.44-7.6 124.59-9.35 124.59-11.45L124.59-11.45 124.59-18.45Q124.59-20.25 124.39-21.78 124.19-23.3 123.53-24.2 122.89-25.1 121.48-25.1L121.48-25.1Q120.44-25.1 119.51-24.65 118.58-24.2 117.89-23.65L117.89-23.65 117.89-5.1Q118.58-4.55 119.56-4.17 120.53-3.8 121.69-3.8ZM142.78 0.4L142.78 0.4Q139.38 0.4 137.53-0.93 135.68-2.25 134.96-4.83 134.23-7.4 134.23-11.15L134.23-11.15 134.23-17.75Q134.23-21.6 134.98-24.15 135.73-26.7 137.61-28 139.48-29.3 142.78-29.3L142.78-29.3Q146.43-29.3 148.16-27.8 149.88-26.3 150.43-23.48 150.98-20.65 150.98-16.7L150.98-16.7 150.98-14.35 139.58-14.35 139.58-8.55Q139.58-6.8 139.91-5.7 140.23-4.6 140.96-4.08 141.68-3.55 142.83-3.55L142.83-3.55Q144.03-3.55 144.66-4.13 145.28-4.7 145.51-5.78 145.73-6.85 145.73-8.3L145.73-8.3 145.73-10.05 150.93-10.05 150.93-8.95Q150.93-4.6 149.08-2.1 147.23 0.4 142.78 0.4ZM139.58-18.8L139.58-17.25 145.73-17.25 145.73-19.85Q145.73-21.65 145.53-22.88 145.33-24.1 144.71-24.73 144.08-25.35 142.73-25.35L142.73-25.35Q141.43-25.35 140.76-24.75 140.08-24.15 139.83-22.73 139.58-21.3 139.58-18.8L139.58-18.8ZM156.03 7.25L155.38 7.25 155.38 3.15Q157.33 3.15 158.48 2.98 159.63 2.8 160.13 2.33 160.63 1.85 160.63 1L160.63 1Q160.63 0.55 160.28-1 159.93-2.55 159.53-4.3L159.53-4.3 153.73-28.9 159.13-28.9 163.03-7.3 166.78-28.9 172.18-28.9 165.28 1.6Q164.83 3.7 163.63 4.93 162.43 6.15 160.56 6.7 158.68 7.25 156.03 7.25L156.03 7.25ZM186.38 9.55L186.38 9.55 186.38 5.6Q187.63 5.6 188.33 5.43 189.03 5.25 189.33 4.65 189.63 4.05 189.68 2.83 189.73 1.6 189.73-0.5L189.73-0.5 189.73-8.35Q189.73-12.1 190.63-13.7 191.53-15.3 193.08-15.65L193.08-15.65Q191.53-16.05 190.63-17.65 189.73-19.25 189.73-23L189.73-23 189.73-30.8Q189.73-32.85 189.68-34.08 189.63-35.3 189.33-35.9 189.03-36.5 188.33-36.7 187.63-36.9 186.38-36.9L186.38-36.9 186.38-40.85Q189.53-40.85 191.33-40.53 193.13-40.2 194-39.18 194.88-38.15 195.1-36.15 195.33-34.15 195.33-30.8L195.33-30.8 195.33-23.8Q195.33-21.1 195.55-19.75 195.78-18.4 196.4-17.95 197.03-17.5 198.23-17.5L198.23-17.5 198.23-13.8Q197.03-13.8 196.4-13.38 195.78-12.95 195.55-11.63 195.33-10.3 195.33-7.55L195.33-7.55 195.33-0.5Q195.33 2.85 195.1 4.85 194.88 6.85 194 7.88 193.13 8.9 191.33 9.22 189.53 9.55 186.38 9.55Z" opacity="1" transform="matrix(1,0,0,1,0,0)" fill="#000000" class="wordmark-text-0" data-fill-palette-color="primary" id="text-0"></path></svg></g></svg></g></svg></g></svg></g><g><svg viewBox="0 0 238.86343650817335 140.37745455286623" height="140.37745455286623" width="238.86343650817335"><g><svg xmlns="http://www.w3.org/2000/svg" xmlns:xlink="http://www.w3.org/1999/xlink" version="1.1" x="0" y="0" viewBox="14.855815640813884 29.345999999999997 70.28885704408978 41.308" enable-background="new 0 0 100 100" xml:space="preserve" height="140.37745455286623" width="238.86343650817335" class="icon-icon-0" data-fill-palette-color="accent" id="icon-0"><path fill="#000000" d="M84.645 38.011h-7.326l0.701-1.59c0.085-0.194 0.04-0.421-0.115-0.566l-6.786-6.373c-0.093-0.087-0.215-0.136-0.342-0.136H63.16c-0.126 0-0.248 0.048-0.341 0.134l-7.492 6.972H41.219c-0.187 0-0.359 0.104-0.444 0.271-0.086 0.167-0.071 0.367 0.037 0.52l2.119 2.969h-8.238c-0.188 0-0.359 0.105-0.445 0.272-0.086 0.167-0.071 0.368 0.039 0.52l6.606 9.178-7.315 6.948c-3.082 0.884-18.227 5.225-18.379 5.274-0.208 0.069-0.349 0.269-0.343 0.489 0.012 0.458 0.012 0.458 10.28 3.3 0.004 0.001 0.008 0 0.012 0.001 0.001 0 0.002 0.002 0.004 0.002l17.823 4.298c0.037 0.009 0.074 0.014 0.111 0.014l12.792 0.146c0.002 0 0.004 0 0.006 0 0 0 0 0 0 0l0 0c0.001 0 0.002-0.001 0.003-0.001 0.088 0 0.175-0.023 0.251-0.069l9.082-5.373c0.09-0.053 0.161-0.133 0.203-0.229l8.169-18.522c0.044-0.014 0.091-0.013 0.131-0.04l11.2-7.495c0.183-0.123 0.264-0.35 0.2-0.561C85.06 38.155 84.865 38.011 84.645 38.011zM42.19 37.451h12.062l-2.966 2.76H44.16L42.19 37.451zM62.611 41.211l0.017 24.374-6.604 3.907-20.354-28.28H62.611zM32.009 58.619l-6.879 6.534c-2.613-0.724-6.061-1.688-8.028-2.257C20.496 61.92 28.398 59.654 32.009 58.619zM26.279 65.439L41.482 51 54.9 69.643l-11.746-0.135L26.279 65.439zM64.573 64.433l-0.946 0.56L63.61 40.71c0-0.276-0.224-0.5-0.5-0.5H52.755l10.602-9.865h7.223l6.384 5.995L64.573 64.433zM74.315 44.822l2.563-5.811h6.121L74.315 44.822z" data-fill-palette-color="accent"></path></svg></g></svg></g></svg></g><defs></defs></svg><rect width="395.52" height="84.33355361831667" fill="none" stroke="none" visibility="hidden"></rect></g></svg></g></svg>